<?xml version="1.0" encoding="utf-8"?>
<!-- Generator: Adobe Illustrator 22.0.0, SVG Export Plug-In . SVG Version: 6.00 Build 0)  -->
<svg version="1.1" id="Logo" xmlns="http://www.w3.org/2000/svg" xmlns:xlink="http://www.w3.org/1999/xlink" x="0px" y="0px"
	 width="320px" height="64px" viewBox="0 0 320 64" style="enable-background:new 0 0 320 64;" xml:space="preserve">
<style type="text/css">
	.st0{fill:#1D1F2C;}
</style>
<g>
	<path class="st0" d="M86.3,38.3h10.1V44h-16V19.8h5.9V38.3z"/>
	<path class="st0" d="M99.9,18c1.7,0,3.4,1,3.4,3.2c0,2-1.6,3-3.1,3c-1.7,0-3.4-1-3.4-3S98.3,18.1,99.9,18z M97.3,25.3V44h5.5V25.3
		H97.3z"/>
	<path class="st0" d="M115.5,31.3l2.3-6h5.6v0.9L116.4,44h-4.5l-7.1-17.9v-0.9h5.7l2.3,6l1.3,4.8L115.5,31.3z"/>
	<path class="st0" d="M143.3,36.7h-13.4c0.7,1.7,2.3,2.6,4,2.6c1.2,0,2.3-0.4,3.1-1.3h5.9c-1.4,4.1-5.4,6.2-9.3,6.1
		c-4.7-0.1-9.4-3.3-9.4-9.6c0-6.4,4.9-9.6,9.7-9.6c4.8,0,9.6,3.2,9.6,9.6C143.5,35.4,143.5,36,143.3,36.7z M137.6,32.5
		c-0.5-1.9-2-2.7-3.8-2.7c-1.6,0-3.1,0.9-3.7,2.7H137.6z"/>
	<path class="st0" d="M158.7,27.5c0-1.6-1.3-2.5-3.1-2.5c-1.8,0-3.1,0.8-3.1,2.1c0,1.8,2.9,1.8,3.7,1.9c3.4,0.4,7.7,1.3,8.8,5.7
		c0.1,0.6,0.2,1.2,0.2,1.7c0,5-4.9,7.9-9.5,7.9c-3.9,0-9.3-2.4-9.3-8.6h6c0,2.4,2,2.8,3.3,2.8c1.9,0,3.5-0.6,3.5-1.9
		c0-1.7-2.8-1.8-3.7-1.9c-3.9-0.4-8.5-1.2-9-6.8v0c-0.3-5.3,4.1-8.5,9.2-8.5c4.3,0,9,2.4,9,8H158.7z"/>
	<path class="st0" d="M172.2,42.3v7.2h-5.4V25.3h5.4v1.9c1.3-1.6,3.1-2.1,4.9-2.1c5.9,0,9,4.8,9,9.9c-0.1,5.1-3,9.3-9,9.3
		C175.2,44.3,173.4,43.7,172.2,42.3z M172.2,34.8c0,2.5,1.9,4.5,4.2,4.5c2.8,0,4.1-2.2,4.2-4.5c0-2.2-1.4-4.6-4.2-4.6
		C174,30.3,172.2,32.3,172.2,34.8z"/>
	<path class="st0" d="M206.8,36.7h-13.4c0.7,1.7,2.3,2.6,4,2.6c1.2,0,2.3-0.4,3.1-1.3h5.9c-1.4,4.1-5.4,6.2-9.3,6.1
		c-4.7-0.1-9.4-3.3-9.4-9.6c0-6.4,4.9-9.6,9.7-9.6c4.8,0,9.6,3.2,9.6,9.6C207,35.4,207,36,206.8,36.7z M201.1,32.5
		c-0.5-1.9-2-2.7-3.8-2.7c-1.6,0-3.1,0.9-3.7,2.7H201.1z"/>
	<path class="st0" d="M227.8,36c-1.6,11.5-18.8,10.7-18.8-1.4s17.3-12.9,18.8-1.4h-5.4c-1.4-4.6-8.1-3.9-8.1,1.4
		c0,5.3,6.7,6,8.1,1.4H227.8z"/>
	<path class="st0" d="M237.7,44.3c-4.2,0-6.7-1.9-6.7-6.8v-7.3h-2.4v-4.7h2.4V22l5.4-0.5v4h3.9v4.7h-3.9v7.3c0,1.7,1.2,2.2,2.5,2.2
		c0.5,0,1.1-0.1,1.6-0.2l0.2,4.5C239.6,44.2,238.6,44.3,237.7,44.3z"/>
	<path class="st0" d="M248.2,44h-5.4V25.3h4.9l0.2,1.2c1.2-1.1,2.6-1.6,4.1-1.6c0.7,0,1.4,0.1,2.1,0.3l-0.1,5.1
		c-0.6-0.2-1.2-0.3-1.8-0.3c-2,0-4,1.1-4,3.6V44z"/>
	<path class="st0" d="M267.9,44v-1.9c-1.3,1.7-3.3,2.2-5.3,2.1c-5.3,0-6.8-4-6.7-8.6V25.3h5.5v10.2c0,5.4,6.2,4.7,6.2-0.1V25.3h5.8
		V44H267.9z"/>
	<path class="st0" d="M281.7,25.3v1.9c1.3-1.7,3.5-2.2,5.5-2.1c2.1,0.1,3.5,1.1,4.4,2.5c1.3-1.8,4-2.6,6.2-2.4
		c3.5,0.1,6.3,2.5,6.3,8.4V44h-5.5V33.5c0-2.2-1.1-3.1-2.3-3.1c-1.3,0-3.3,0.9-3.4,3V44h-0.2h-5.2V33.5c0-2.2-1.1-3.1-2.3-3.1
		c-1.3,0-3.1,0.9-3.1,3V44h-5.8c0-8,0-10.6,0-18.7H281.7z"/>
</g>
<path class="st0" d="M52,45c-11.7,0-15.6-11.3-15.8-11.7C36.1,33,33.9,27,28,27c-6,0-8.2,6.2-8.2,6.3l-7.6-2.5
	C12.4,30.3,16.3,19,28,19s15.6,11.3,15.8,11.7C43.9,31,46.1,37,52,37c6,0,8.2-6.2,8.2-6.3l7.6,2.5C67.6,33.7,63.7,45,52,45z"/>
</svg>
